<mxfile host="Electron" agent="Mozilla/5.0 (Windows NT 10.0; Win64; x64) AppleWebKit/537.36 (KHTML, like Gecko) draw.io/26.0.16 Chrome/132.0.6834.196 Electron/34.2.0 Safari/537.36" version="26.0.16">
  <diagram name="Страница — 1" id="T0lgfvcUmjg6LenymRfq">
    <mxGraphModel dx="3447" dy="2214" grid="1" gridSize="10" guides="1" tooltips="1" connect="1" arrows="1" fold="1" page="1" pageScale="1" pageWidth="827" pageHeight="1169" math="0" shadow="0">
      <root>
        <mxCell id="0" />
        <mxCell id="1" parent="0" />
        <mxCell id="xkR9pmXFTFTJfKK7whv9-181" value="" style="rounded=1;whiteSpace=wrap;html=1;" vertex="1" parent="1">
          <mxGeometry x="-798.86" y="-453" width="680" height="370" as="geometry" />
        </mxCell>
        <mxCell id="xkR9pmXFTFTJfKK7whv9-140" value="" style="rounded=1;whiteSpace=wrap;html=1;" vertex="1" parent="1">
          <mxGeometry x="-1600" y="-453" width="680" height="370" as="geometry" />
        </mxCell>
        <mxCell id="xkR9pmXFTFTJfKK7whv9-1" value="" style="group" vertex="1" connectable="0" parent="1">
          <mxGeometry x="-1650" y="-1120" width="1770" height="80" as="geometry" />
        </mxCell>
        <mxCell id="xkR9pmXFTFTJfKK7whv9-3" value="Оформление заявки клиентом" style="shape=step;perimeter=stepPerimeter;whiteSpace=wrap;html=1;fixedSize=1;fontSize=14;" vertex="1" parent="xkR9pmXFTFTJfKK7whv9-1">
          <mxGeometry x="60" width="246" height="80" as="geometry" />
        </mxCell>
        <mxCell id="xkR9pmXFTFTJfKK7whv9-5" value="Подтверждение заявки" style="shape=step;perimeter=stepPerimeter;whiteSpace=wrap;html=1;fixedSize=1;fontSize=14;" vertex="1" parent="xkR9pmXFTFTJfKK7whv9-1">
          <mxGeometry x="306" width="244" height="80" as="geometry" />
        </mxCell>
        <mxCell id="xkR9pmXFTFTJfKK7whv9-7" value="Прием у врача" style="shape=step;perimeter=stepPerimeter;whiteSpace=wrap;html=1;fixedSize=1;fontSize=14;" vertex="1" parent="xkR9pmXFTFTJfKK7whv9-1">
          <mxGeometry x="550" width="246" height="80" as="geometry" />
        </mxCell>
        <mxCell id="xkR9pmXFTFTJfKK7whv9-10" value="Оформление заявки клиентом" style="rounded=1;whiteSpace=wrap;html=1;fontSize=15;" vertex="1" parent="1">
          <mxGeometry x="-1458.8600000000001" y="-803.31" width="190" height="130" as="geometry" />
        </mxCell>
        <mxCell id="xkR9pmXFTFTJfKK7whv9-11" value="" style="endArrow=classic;html=1;rounded=0;entryX=0.006;entryY=0.706;entryDx=0;entryDy=0;entryPerimeter=0;" edge="1" parent="1">
          <mxGeometry width="50" height="50" relative="1" as="geometry">
            <mxPoint x="-1600" y="-703.0899999999999" as="sourcePoint" />
            <mxPoint x="-1458.8600000000001" y="-703.31" as="targetPoint" />
          </mxGeometry>
        </mxCell>
        <mxCell id="xkR9pmXFTFTJfKK7whv9-12" value="Перс.данные клиента" style="edgeLabel;html=1;align=center;verticalAlign=middle;resizable=0;points=[];" vertex="1" connectable="0" parent="xkR9pmXFTFTJfKK7whv9-11">
          <mxGeometry x="-0.0775" y="-2" relative="1" as="geometry">
            <mxPoint y="6" as="offset" />
          </mxGeometry>
        </mxCell>
        <mxCell id="xkR9pmXFTFTJfKK7whv9-15" value="" style="endArrow=classic;html=1;rounded=0;entryX=0.002;entryY=0.448;entryDx=0;entryDy=0;entryPerimeter=0;" edge="1" parent="1" target="xkR9pmXFTFTJfKK7whv9-10">
          <mxGeometry width="50" height="50" relative="1" as="geometry">
            <mxPoint x="-1596.8600000000001" y="-743.31" as="sourcePoint" />
            <mxPoint x="-1468.8600000000001" y="-743.31" as="targetPoint" />
          </mxGeometry>
        </mxCell>
        <mxCell id="xkR9pmXFTFTJfKK7whv9-16" value="Данные о симптомах&lt;div&gt;болезни&lt;/div&gt;" style="edgeLabel;html=1;align=center;verticalAlign=middle;resizable=0;points=[];" vertex="1" connectable="0" parent="xkR9pmXFTFTJfKK7whv9-15">
          <mxGeometry x="-0.0775" y="-2" relative="1" as="geometry">
            <mxPoint x="4" y="13" as="offset" />
          </mxGeometry>
        </mxCell>
        <mxCell id="xkR9pmXFTFTJfKK7whv9-17" value="" style="endArrow=classic;html=1;rounded=0;" edge="1" parent="1">
          <mxGeometry width="50" height="50" relative="1" as="geometry">
            <mxPoint x="-1596.8600000000001" y="-773.31" as="sourcePoint" />
            <mxPoint x="-1458.8600000000001" y="-773.31" as="targetPoint" />
          </mxGeometry>
        </mxCell>
        <mxCell id="xkR9pmXFTFTJfKK7whv9-18" value="Данные о местоположении" style="edgeLabel;html=1;align=center;verticalAlign=middle;resizable=0;points=[];" vertex="1" connectable="0" parent="xkR9pmXFTFTJfKK7whv9-17">
          <mxGeometry x="-0.0775" y="-2" relative="1" as="geometry">
            <mxPoint y="8" as="offset" />
          </mxGeometry>
        </mxCell>
        <mxCell id="xkR9pmXFTFTJfKK7whv9-20" value="" style="endArrow=classic;html=1;rounded=0;entryX=0.316;entryY=-0.003;entryDx=0;entryDy=0;entryPerimeter=0;" edge="1" parent="1">
          <mxGeometry width="50" height="50" relative="1" as="geometry">
            <mxPoint x="-1436.1" y="-936.3" as="sourcePoint" />
            <mxPoint x="-1435.8200000000002" y="-803.7" as="targetPoint" />
            <Array as="points">
              <mxPoint x="-1436.1" y="-836.3" />
            </Array>
          </mxGeometry>
        </mxCell>
        <mxCell id="xkR9pmXFTFTJfKK7whv9-22" value="Форма заявки" style="edgeLabel;html=1;align=center;verticalAlign=middle;resizable=0;points=[];" vertex="1" connectable="0" parent="xkR9pmXFTFTJfKK7whv9-20">
          <mxGeometry x="-0.0146" y="-2" relative="1" as="geometry">
            <mxPoint x="-17" y="17" as="offset" />
          </mxGeometry>
        </mxCell>
        <mxCell id="xkR9pmXFTFTJfKK7whv9-23" value="" style="endArrow=classic;html=1;rounded=0;entryX=0.362;entryY=0.02;entryDx=0;entryDy=0;entryPerimeter=0;" edge="1" parent="1">
          <mxGeometry width="50" height="50" relative="1" as="geometry">
            <mxPoint x="-1387.6399999999999" y="-935.9100000000001" as="sourcePoint" />
            <mxPoint x="-1388.8600000000001" y="-803.3100000000002" as="targetPoint" />
          </mxGeometry>
        </mxCell>
        <mxCell id="xkR9pmXFTFTJfKK7whv9-24" value="Закон о защите&lt;div&gt;&amp;nbsp;персональных&lt;/div&gt;&lt;div&gt;&amp;nbsp;данных&lt;/div&gt;" style="edgeLabel;html=1;align=center;verticalAlign=middle;resizable=0;points=[];fontSize=11;" vertex="1" connectable="0" parent="xkR9pmXFTFTJfKK7whv9-23">
          <mxGeometry x="-0.0146" y="-2" relative="1" as="geometry">
            <mxPoint x="1" y="-16" as="offset" />
          </mxGeometry>
        </mxCell>
        <mxCell id="xkR9pmXFTFTJfKK7whv9-25" value="" style="endArrow=classic;html=1;rounded=0;entryX=0.25;entryY=1;entryDx=0;entryDy=0;" edge="1" parent="1">
          <mxGeometry width="50" height="50" relative="1" as="geometry">
            <mxPoint x="-1408.3600000000001" y="-533.31" as="sourcePoint" />
            <mxPoint x="-1408.8600000000001" y="-673.31" as="targetPoint" />
          </mxGeometry>
        </mxCell>
        <mxCell id="xkR9pmXFTFTJfKK7whv9-26" value="Компьютер" style="edgeLabel;html=1;align=center;verticalAlign=middle;resizable=0;points=[];" vertex="1" connectable="0" parent="xkR9pmXFTFTJfKK7whv9-25">
          <mxGeometry x="-0.0775" y="-2" relative="1" as="geometry">
            <mxPoint y="42" as="offset" />
          </mxGeometry>
        </mxCell>
        <mxCell id="xkR9pmXFTFTJfKK7whv9-29" value="" style="endArrow=classic;html=1;rounded=0;entryX=0.475;entryY=1.008;entryDx=0;entryDy=0;entryPerimeter=0;" edge="1" parent="1">
          <mxGeometry width="50" height="50" relative="1" as="geometry">
            <mxPoint x="-1378.3600000000001" y="-533.31" as="sourcePoint" />
            <mxPoint x="-1378.1100000000001" y="-672.27" as="targetPoint" />
            <Array as="points">
              <mxPoint x="-1378.3600000000001" y="-613.31" />
            </Array>
          </mxGeometry>
        </mxCell>
        <mxCell id="xkR9pmXFTFTJfKK7whv9-30" value="Смартфон" style="edgeLabel;html=1;align=center;verticalAlign=middle;resizable=0;points=[];" vertex="1" connectable="0" parent="xkR9pmXFTFTJfKK7whv9-29">
          <mxGeometry x="-0.0775" y="-2" relative="1" as="geometry">
            <mxPoint y="12" as="offset" />
          </mxGeometry>
        </mxCell>
        <mxCell id="xkR9pmXFTFTJfKK7whv9-33" value="" style="endArrow=classic;html=1;rounded=0;entryX=0.904;entryY=1.015;entryDx=0;entryDy=0;entryPerimeter=0;" edge="1" parent="1">
          <mxGeometry width="50" height="50" relative="1" as="geometry">
            <mxPoint x="-1338.8600000000001" y="-535.26" as="sourcePoint" />
            <mxPoint x="-1337.1000000000004" y="-673.3100000000002" as="targetPoint" />
          </mxGeometry>
        </mxCell>
        <mxCell id="xkR9pmXFTFTJfKK7whv9-34" value="Интернет" style="edgeLabel;html=1;align=center;verticalAlign=middle;resizable=0;points=[];" vertex="1" connectable="0" parent="xkR9pmXFTFTJfKK7whv9-33">
          <mxGeometry x="-0.0775" y="-2" relative="1" as="geometry">
            <mxPoint y="-19" as="offset" />
          </mxGeometry>
        </mxCell>
        <mxCell id="xkR9pmXFTFTJfKK7whv9-35" value="" style="endArrow=classic;html=1;rounded=0;entryX=0.905;entryY=1.01;entryDx=0;entryDy=0;entryPerimeter=0;" edge="1" parent="1" target="xkR9pmXFTFTJfKK7whv9-10">
          <mxGeometry width="50" height="50" relative="1" as="geometry">
            <mxPoint x="-1288.8600000000001" y="-533.31" as="sourcePoint" />
            <mxPoint x="-1287.1000000000004" y="-663.3100000000002" as="targetPoint" />
          </mxGeometry>
        </mxCell>
        <mxCell id="xkR9pmXFTFTJfKK7whv9-36" value="Сайт" style="edgeLabel;html=1;align=center;verticalAlign=middle;resizable=0;points=[];" vertex="1" connectable="0" parent="xkR9pmXFTFTJfKK7whv9-35">
          <mxGeometry x="-0.0775" y="-2" relative="1" as="geometry">
            <mxPoint y="-36" as="offset" />
          </mxGeometry>
        </mxCell>
        <mxCell id="xkR9pmXFTFTJfKK7whv9-37" value="" style="endArrow=classic;html=1;rounded=0;entryX=0.014;entryY=0.304;entryDx=0;entryDy=0;entryPerimeter=0;" edge="1" parent="1" target="xkR9pmXFTFTJfKK7whv9-44">
          <mxGeometry width="50" height="50" relative="1" as="geometry">
            <mxPoint x="-1268.8600000000001" y="-763.31" as="sourcePoint" />
            <mxPoint x="-1130.8600000000001" y="-763.31" as="targetPoint" />
          </mxGeometry>
        </mxCell>
        <mxCell id="xkR9pmXFTFTJfKK7whv9-38" value="Заявка на запись" style="edgeLabel;html=1;align=center;verticalAlign=middle;resizable=0;points=[];" vertex="1" connectable="0" parent="xkR9pmXFTFTJfKK7whv9-37">
          <mxGeometry x="-0.0775" y="-2" relative="1" as="geometry">
            <mxPoint y="8" as="offset" />
          </mxGeometry>
        </mxCell>
        <mxCell id="xkR9pmXFTFTJfKK7whv9-39" value="" style="endArrow=classic;html=1;rounded=0;entryX=0.017;entryY=0.696;entryDx=0;entryDy=0;entryPerimeter=0;" edge="1" parent="1" target="xkR9pmXFTFTJfKK7whv9-44">
          <mxGeometry width="50" height="50" relative="1" as="geometry">
            <mxPoint x="-1268.8600000000001" y="-713.31" as="sourcePoint" />
            <mxPoint x="-1130.8600000000001" y="-713.31" as="targetPoint" />
          </mxGeometry>
        </mxCell>
        <mxCell id="xkR9pmXFTFTJfKK7whv9-40" value="Данные клиента" style="edgeLabel;html=1;align=center;verticalAlign=middle;resizable=0;points=[];" vertex="1" connectable="0" parent="xkR9pmXFTFTJfKK7whv9-39">
          <mxGeometry x="-0.0775" y="-2" relative="1" as="geometry">
            <mxPoint y="8" as="offset" />
          </mxGeometry>
        </mxCell>
        <mxCell id="xkR9pmXFTFTJfKK7whv9-42" value="А1" style="text;html=1;align=center;verticalAlign=middle;whiteSpace=wrap;rounded=0;" vertex="1" parent="1">
          <mxGeometry x="-1318.8600000000001" y="-703.31" width="60" height="30" as="geometry" />
        </mxCell>
        <mxCell id="xkR9pmXFTFTJfKK7whv9-44" value="Подтверждение заявки" style="rounded=1;whiteSpace=wrap;html=1;fontSize=15;" vertex="1" parent="1">
          <mxGeometry x="-1128.8600000000001" y="-803.31" width="190" height="130" as="geometry" />
        </mxCell>
        <mxCell id="xkR9pmXFTFTJfKK7whv9-47" value="" style="endArrow=classic;html=1;rounded=0;entryX=0.235;entryY=0.001;entryDx=0;entryDy=0;entryPerimeter=0;" edge="1" parent="1" target="xkR9pmXFTFTJfKK7whv9-44">
          <mxGeometry width="50" height="50" relative="1" as="geometry">
            <mxPoint x="-1082.51" y="-937.6000000000001" as="sourcePoint" />
            <mxPoint x="-1084.47" y="-803.3100000000002" as="targetPoint" />
          </mxGeometry>
        </mxCell>
        <mxCell id="xkR9pmXFTFTJfKK7whv9-48" value="Закон о защите&lt;div&gt;&amp;nbsp;персональных&lt;/div&gt;&lt;div&gt;&amp;nbsp;данных&lt;/div&gt;" style="edgeLabel;html=1;align=center;verticalAlign=middle;resizable=0;points=[];fontSize=11;" vertex="1" connectable="0" parent="xkR9pmXFTFTJfKK7whv9-47">
          <mxGeometry x="-0.0146" y="-2" relative="1" as="geometry">
            <mxPoint x="1" y="36" as="offset" />
          </mxGeometry>
        </mxCell>
        <mxCell id="xkR9pmXFTFTJfKK7whv9-49" value="" style="endArrow=classic;html=1;rounded=0;entryX=0.446;entryY=0.007;entryDx=0;entryDy=0;entryPerimeter=0;" edge="1" parent="1" target="xkR9pmXFTFTJfKK7whv9-44">
          <mxGeometry width="50" height="50" relative="1" as="geometry">
            <mxPoint x="-1043.73" y="-935" as="sourcePoint" />
            <mxPoint x="-1043.73" y="-805" as="targetPoint" />
          </mxGeometry>
        </mxCell>
        <mxCell id="xkR9pmXFTFTJfKK7whv9-50" value="Закон о&lt;div&gt;&amp;nbsp;неразглашении&lt;div&gt;&amp;nbsp;информации&lt;/div&gt;&lt;/div&gt;" style="edgeLabel;html=1;align=center;verticalAlign=middle;resizable=0;points=[];fontSize=11;" vertex="1" connectable="0" parent="xkR9pmXFTFTJfKK7whv9-49">
          <mxGeometry x="-0.0146" y="-2" relative="1" as="geometry">
            <mxPoint x="11" y="-14" as="offset" />
          </mxGeometry>
        </mxCell>
        <mxCell id="xkR9pmXFTFTJfKK7whv9-51" value="" style="endArrow=classic;html=1;rounded=0;entryX=0.729;entryY=-0.005;entryDx=0;entryDy=0;entryPerimeter=0;" edge="1" parent="1" target="xkR9pmXFTFTJfKK7whv9-44">
          <mxGeometry width="50" height="50" relative="1" as="geometry">
            <mxPoint x="-990.73" y="-935" as="sourcePoint" />
            <mxPoint x="-990.32" y="-801.2299999999998" as="targetPoint" />
          </mxGeometry>
        </mxCell>
        <mxCell id="xkR9pmXFTFTJfKK7whv9-52" value="Правила&lt;div&gt;&amp;nbsp;отсеивания&amp;nbsp;&lt;/div&gt;&lt;div&gt;заявок&lt;/div&gt;" style="edgeLabel;html=1;align=center;verticalAlign=middle;resizable=0;points=[];fontSize=11;" vertex="1" connectable="0" parent="xkR9pmXFTFTJfKK7whv9-51">
          <mxGeometry x="-0.0146" y="-2" relative="1" as="geometry">
            <mxPoint x="11" y="-54" as="offset" />
          </mxGeometry>
        </mxCell>
        <mxCell id="xkR9pmXFTFTJfKK7whv9-53" value="" style="endArrow=classic;html=1;rounded=0;entryX=0.25;entryY=1;entryDx=0;entryDy=0;" edge="1" parent="1">
          <mxGeometry width="50" height="50" relative="1" as="geometry">
            <mxPoint x="-1109.3600000000001" y="-533.31" as="sourcePoint" />
            <mxPoint x="-1109.8600000000001" y="-673.31" as="targetPoint" />
          </mxGeometry>
        </mxCell>
        <mxCell id="xkR9pmXFTFTJfKK7whv9-55" value="" style="endArrow=classic;html=1;rounded=0;entryX=0.475;entryY=1.008;entryDx=0;entryDy=0;entryPerimeter=0;" edge="1" parent="1">
          <mxGeometry width="50" height="50" relative="1" as="geometry">
            <mxPoint x="-1065.3600000000001" y="-533.31" as="sourcePoint" />
            <mxPoint x="-1065.1100000000001" y="-672.27" as="targetPoint" />
            <Array as="points">
              <mxPoint x="-1065.3600000000001" y="-613.31" />
            </Array>
          </mxGeometry>
        </mxCell>
        <mxCell id="xkR9pmXFTFTJfKK7whv9-56" value="Оператор&lt;div&gt;связи&lt;/div&gt;" style="edgeLabel;html=1;align=center;verticalAlign=middle;resizable=0;points=[];" vertex="1" connectable="0" parent="xkR9pmXFTFTJfKK7whv9-55">
          <mxGeometry x="-0.0775" y="-2" relative="1" as="geometry">
            <mxPoint x="2" y="36" as="offset" />
          </mxGeometry>
        </mxCell>
        <mxCell id="xkR9pmXFTFTJfKK7whv9-57" value="" style="endArrow=classic;html=1;rounded=0;entryX=0.688;entryY=1.013;entryDx=0;entryDy=0;entryPerimeter=0;" edge="1" parent="1">
          <mxGeometry width="50" height="50" relative="1" as="geometry">
            <mxPoint x="-1029.3600000000001" y="-535" as="sourcePoint" />
            <mxPoint x="-1028.6400000000003" y="-673.3100000000002" as="targetPoint" />
          </mxGeometry>
        </mxCell>
        <mxCell id="xkR9pmXFTFTJfKK7whv9-58" value="Стационарный&lt;div&gt;&amp;nbsp;телефон&lt;/div&gt;" style="edgeLabel;html=1;align=center;verticalAlign=middle;resizable=0;points=[];" vertex="1" connectable="0" parent="xkR9pmXFTFTJfKK7whv9-57">
          <mxGeometry x="-0.0775" y="-2" relative="1" as="geometry">
            <mxPoint y="4" as="offset" />
          </mxGeometry>
        </mxCell>
        <mxCell id="xkR9pmXFTFTJfKK7whv9-59" value="" style="endArrow=classic;html=1;rounded=0;entryX=0.748;entryY=1.012;entryDx=0;entryDy=0;entryPerimeter=0;" edge="1" parent="1" target="xkR9pmXFTFTJfKK7whv9-44">
          <mxGeometry width="50" height="50" relative="1" as="geometry">
            <mxPoint x="-986.36" y="-533.31" as="sourcePoint" />
            <mxPoint x="-988.86" y="-663.31" as="targetPoint" />
          </mxGeometry>
        </mxCell>
        <mxCell id="xkR9pmXFTFTJfKK7whv9-60" value="Интернет" style="edgeLabel;html=1;align=center;verticalAlign=middle;resizable=0;points=[];" vertex="1" connectable="0" parent="xkR9pmXFTFTJfKK7whv9-59">
          <mxGeometry x="-0.0775" y="-2" relative="1" as="geometry">
            <mxPoint x="-2" y="-26" as="offset" />
          </mxGeometry>
        </mxCell>
        <mxCell id="xkR9pmXFTFTJfKK7whv9-61" value="" style="endArrow=classic;html=1;rounded=0;entryX=0.894;entryY=1.006;entryDx=0;entryDy=0;entryPerimeter=0;" edge="1" parent="1" target="xkR9pmXFTFTJfKK7whv9-44">
          <mxGeometry width="50" height="50" relative="1" as="geometry">
            <mxPoint x="-957.86" y="-533.31" as="sourcePoint" />
            <mxPoint x="-948.86" y="-663.31" as="targetPoint" />
          </mxGeometry>
        </mxCell>
        <mxCell id="xkR9pmXFTFTJfKK7whv9-89" value="Компьютер" style="edgeLabel;html=1;align=center;verticalAlign=middle;resizable=0;points=[];" vertex="1" connectable="0" parent="xkR9pmXFTFTJfKK7whv9-61">
          <mxGeometry x="0.6109" y="-1" relative="1" as="geometry">
            <mxPoint x="6" as="offset" />
          </mxGeometry>
        </mxCell>
        <mxCell id="xkR9pmXFTFTJfKK7whv9-63" value="" style="endArrow=classic;html=1;rounded=0;entryX=0.951;entryY=0.023;entryDx=0;entryDy=0;entryPerimeter=0;" edge="1" parent="1" target="xkR9pmXFTFTJfKK7whv9-44">
          <mxGeometry width="50" height="50" relative="1" as="geometry">
            <mxPoint x="-948.86" y="-937" as="sourcePoint" />
            <mxPoint x="-947.99" y="-803.31" as="targetPoint" />
          </mxGeometry>
        </mxCell>
        <mxCell id="xkR9pmXFTFTJfKK7whv9-64" value="График&lt;div&gt;&amp;nbsp;работы&lt;/div&gt;&lt;div&gt;&amp;nbsp;администратора&lt;/div&gt;" style="edgeLabel;html=1;align=center;verticalAlign=middle;resizable=0;points=[];fontSize=11;" vertex="1" connectable="0" parent="xkR9pmXFTFTJfKK7whv9-63">
          <mxGeometry x="-0.0146" y="-2" relative="1" as="geometry">
            <mxPoint x="11" y="8" as="offset" />
          </mxGeometry>
        </mxCell>
        <mxCell id="xkR9pmXFTFTJfKK7whv9-66" value="А2" style="text;html=1;align=center;verticalAlign=middle;whiteSpace=wrap;rounded=0;" vertex="1" parent="1">
          <mxGeometry x="-998.86" y="-703.31" width="60" height="30" as="geometry" />
        </mxCell>
        <mxCell id="xkR9pmXFTFTJfKK7whv9-67" value="" style="endArrow=classic;html=1;rounded=0;entryX=0.25;entryY=1;entryDx=0;entryDy=0;" edge="1" parent="1">
          <mxGeometry width="50" height="50" relative="1" as="geometry">
            <mxPoint x="-1438.3600000000001" y="-533.31" as="sourcePoint" />
            <mxPoint x="-1438.8600000000001" y="-673.31" as="targetPoint" />
          </mxGeometry>
        </mxCell>
        <mxCell id="xkR9pmXFTFTJfKK7whv9-68" value="Клиент" style="edgeLabel;html=1;align=center;verticalAlign=middle;resizable=0;points=[];" vertex="1" connectable="0" parent="xkR9pmXFTFTJfKK7whv9-67">
          <mxGeometry x="-0.0775" y="-2" relative="1" as="geometry">
            <mxPoint y="-19" as="offset" />
          </mxGeometry>
        </mxCell>
        <mxCell id="xkR9pmXFTFTJfKK7whv9-69" value="" style="endArrow=classic;html=1;rounded=0;entryX=0.25;entryY=1;entryDx=0;entryDy=0;" edge="1" parent="1">
          <mxGeometry width="50" height="50" relative="1" as="geometry">
            <mxPoint x="-1088.3600000000001" y="-533.31" as="sourcePoint" />
            <mxPoint x="-1088.8600000000001" y="-673.31" as="targetPoint" />
          </mxGeometry>
        </mxCell>
        <mxCell id="xkR9pmXFTFTJfKK7whv9-70" value="Администратор" style="edgeLabel;html=1;align=center;verticalAlign=middle;resizable=0;points=[];" vertex="1" connectable="0" parent="xkR9pmXFTFTJfKK7whv9-69">
          <mxGeometry x="-0.0775" y="-2" relative="1" as="geometry">
            <mxPoint x="-52" y="45" as="offset" />
          </mxGeometry>
        </mxCell>
        <mxCell id="xkR9pmXFTFTJfKK7whv9-84" value="Сайт" style="edgeLabel;html=1;align=center;verticalAlign=middle;resizable=0;points=[];" vertex="1" connectable="0" parent="xkR9pmXFTFTJfKK7whv9-69">
          <mxGeometry x="0.0469" y="-1" relative="1" as="geometry">
            <mxPoint y="-9" as="offset" />
          </mxGeometry>
        </mxCell>
        <mxCell id="xkR9pmXFTFTJfKK7whv9-71" value="" style="endArrow=classic;html=1;rounded=0;entryX=-0.002;entryY=0.31;entryDx=0;entryDy=0;entryPerimeter=0;" edge="1" parent="1" target="xkR9pmXFTFTJfKK7whv9-77">
          <mxGeometry width="50" height="50" relative="1" as="geometry">
            <mxPoint x="-938.86" y="-763.31" as="sourcePoint" />
            <mxPoint x="-795.86" y="-763.31" as="targetPoint" />
          </mxGeometry>
        </mxCell>
        <mxCell id="xkR9pmXFTFTJfKK7whv9-72" value="Запись на прием" style="edgeLabel;html=1;align=center;verticalAlign=middle;resizable=0;points=[];" vertex="1" connectable="0" parent="xkR9pmXFTFTJfKK7whv9-71">
          <mxGeometry x="-0.0775" y="-2" relative="1" as="geometry">
            <mxPoint y="8" as="offset" />
          </mxGeometry>
        </mxCell>
        <mxCell id="xkR9pmXFTFTJfKK7whv9-73" value="" style="endArrow=classic;html=1;rounded=0;" edge="1" parent="1">
          <mxGeometry width="50" height="50" relative="1" as="geometry">
            <mxPoint x="-1338.8600000000001" y="-937.3" as="sourcePoint" />
            <mxPoint x="-1338.8600000000001" y="-803.31" as="targetPoint" />
            <Array as="points">
              <mxPoint x="-1338.8600000000001" y="-837.3" />
            </Array>
          </mxGeometry>
        </mxCell>
        <mxCell id="xkR9pmXFTFTJfKK7whv9-74" value="Форма&lt;div&gt;мед.карты&lt;/div&gt;" style="edgeLabel;html=1;align=center;verticalAlign=middle;resizable=0;points=[];" vertex="1" connectable="0" parent="xkR9pmXFTFTJfKK7whv9-73">
          <mxGeometry x="-0.0146" y="-2" relative="1" as="geometry">
            <mxPoint y="21" as="offset" />
          </mxGeometry>
        </mxCell>
        <mxCell id="xkR9pmXFTFTJfKK7whv9-75" value="" style="endArrow=classic;html=1;rounded=0;entryX=-0.002;entryY=0.69;entryDx=0;entryDy=0;entryPerimeter=0;" edge="1" parent="1" target="xkR9pmXFTFTJfKK7whv9-77">
          <mxGeometry width="50" height="50" relative="1" as="geometry">
            <mxPoint x="-938.86" y="-713.31" as="sourcePoint" />
            <mxPoint x="-795.86" y="-713.31" as="targetPoint" />
          </mxGeometry>
        </mxCell>
        <mxCell id="xkR9pmXFTFTJfKK7whv9-76" value="Данные мед.карты" style="edgeLabel;html=1;align=center;verticalAlign=middle;resizable=0;points=[];" vertex="1" connectable="0" parent="xkR9pmXFTFTJfKK7whv9-75">
          <mxGeometry x="-0.0775" y="-2" relative="1" as="geometry">
            <mxPoint y="8" as="offset" />
          </mxGeometry>
        </mxCell>
        <mxCell id="xkR9pmXFTFTJfKK7whv9-77" value="Прием у врача" style="rounded=1;whiteSpace=wrap;html=1;fontSize=15;" vertex="1" parent="1">
          <mxGeometry x="-798.86" y="-803.31" width="190" height="130" as="geometry" />
        </mxCell>
        <mxCell id="xkR9pmXFTFTJfKK7whv9-78" value="" style="endArrow=classic;html=1;rounded=0;entryX=0.25;entryY=1;entryDx=0;entryDy=0;" edge="1" parent="1">
          <mxGeometry width="50" height="50" relative="1" as="geometry">
            <mxPoint x="-762.36" y="-533.31" as="sourcePoint" />
            <mxPoint x="-762.86" y="-673.31" as="targetPoint" />
          </mxGeometry>
        </mxCell>
        <mxCell id="xkR9pmXFTFTJfKK7whv9-79" value="Врач" style="edgeLabel;html=1;align=center;verticalAlign=middle;resizable=0;points=[];" vertex="1" connectable="0" parent="xkR9pmXFTFTJfKK7whv9-78">
          <mxGeometry x="-0.0775" y="-2" relative="1" as="geometry">
            <mxPoint y="48" as="offset" />
          </mxGeometry>
        </mxCell>
        <mxCell id="xkR9pmXFTFTJfKK7whv9-80" value="" style="endArrow=classic;html=1;rounded=0;entryX=0.25;entryY=1;entryDx=0;entryDy=0;" edge="1" parent="1">
          <mxGeometry width="50" height="50" relative="1" as="geometry">
            <mxPoint x="-732.36" y="-533.31" as="sourcePoint" />
            <mxPoint x="-732.86" y="-673.31" as="targetPoint" />
          </mxGeometry>
        </mxCell>
        <mxCell id="xkR9pmXFTFTJfKK7whv9-81" value="Компьютер" style="edgeLabel;html=1;align=center;verticalAlign=middle;resizable=0;points=[];" vertex="1" connectable="0" parent="xkR9pmXFTFTJfKK7whv9-80">
          <mxGeometry x="-0.0775" y="-2" relative="1" as="geometry">
            <mxPoint x="-2" y="34" as="offset" />
          </mxGeometry>
        </mxCell>
        <mxCell id="xkR9pmXFTFTJfKK7whv9-82" value="" style="endArrow=classic;html=1;rounded=0;entryX=0.25;entryY=1;entryDx=0;entryDy=0;" edge="1" parent="1">
          <mxGeometry width="50" height="50" relative="1" as="geometry">
            <mxPoint x="-702.36" y="-533.31" as="sourcePoint" />
            <mxPoint x="-702.86" y="-673.31" as="targetPoint" />
          </mxGeometry>
        </mxCell>
        <mxCell id="xkR9pmXFTFTJfKK7whv9-83" value="Мед.&lt;div&gt;оборудование&lt;/div&gt;" style="edgeLabel;html=1;align=center;verticalAlign=middle;resizable=0;points=[];" vertex="1" connectable="0" parent="xkR9pmXFTFTJfKK7whv9-82">
          <mxGeometry x="-0.0775" y="-2" relative="1" as="geometry">
            <mxPoint x="6" y="13" as="offset" />
          </mxGeometry>
        </mxCell>
        <mxCell id="xkR9pmXFTFTJfKK7whv9-85" value="" style="endArrow=classic;html=1;rounded=0;entryX=0.25;entryY=1;entryDx=0;entryDy=0;" edge="1" parent="1">
          <mxGeometry width="50" height="50" relative="1" as="geometry">
            <mxPoint x="-673.36" y="-533.31" as="sourcePoint" />
            <mxPoint x="-673.86" y="-673.31" as="targetPoint" />
          </mxGeometry>
        </mxCell>
        <mxCell id="xkR9pmXFTFTJfKK7whv9-86" value="Сайт" style="edgeLabel;html=1;align=center;verticalAlign=middle;resizable=0;points=[];" vertex="1" connectable="0" parent="xkR9pmXFTFTJfKK7whv9-85">
          <mxGeometry x="-0.0775" y="-2" relative="1" as="geometry">
            <mxPoint x="-2" y="-11" as="offset" />
          </mxGeometry>
        </mxCell>
        <mxCell id="xkR9pmXFTFTJfKK7whv9-87" value="" style="endArrow=classic;html=1;rounded=0;entryX=0.25;entryY=1;entryDx=0;entryDy=0;" edge="1" parent="1">
          <mxGeometry width="50" height="50" relative="1" as="geometry">
            <mxPoint x="-642.36" y="-533.31" as="sourcePoint" />
            <mxPoint x="-642.86" y="-673.31" as="targetPoint" />
          </mxGeometry>
        </mxCell>
        <mxCell id="xkR9pmXFTFTJfKK7whv9-88" value="Интернет" style="edgeLabel;html=1;align=center;verticalAlign=middle;resizable=0;points=[];" vertex="1" connectable="0" parent="xkR9pmXFTFTJfKK7whv9-87">
          <mxGeometry x="-0.0775" y="-2" relative="1" as="geometry">
            <mxPoint x="-2" y="-27" as="offset" />
          </mxGeometry>
        </mxCell>
        <mxCell id="xkR9pmXFTFTJfKK7whv9-90" value="" style="endArrow=classic;html=1;rounded=0;entryX=0.051;entryY=0.033;entryDx=0;entryDy=0;entryPerimeter=0;" edge="1" parent="1" target="xkR9pmXFTFTJfKK7whv9-77">
          <mxGeometry width="50" height="50" relative="1" as="geometry">
            <mxPoint x="-788.51" y="-938.6000000000001" as="sourcePoint" />
            <mxPoint x="-789.86" y="-804.31" as="targetPoint" />
          </mxGeometry>
        </mxCell>
        <mxCell id="xkR9pmXFTFTJfKK7whv9-91" value="Закон о защите&lt;div&gt;&amp;nbsp;персональных&lt;/div&gt;&lt;div&gt;&amp;nbsp;данных&lt;/div&gt;" style="edgeLabel;html=1;align=center;verticalAlign=middle;resizable=0;points=[];fontSize=11;" vertex="1" connectable="0" parent="xkR9pmXFTFTJfKK7whv9-90">
          <mxGeometry x="-0.0146" y="-2" relative="1" as="geometry">
            <mxPoint x="-5" y="36" as="offset" />
          </mxGeometry>
        </mxCell>
        <mxCell id="xkR9pmXFTFTJfKK7whv9-92" value="" style="endArrow=classic;html=1;rounded=0;entryX=0.446;entryY=0.007;entryDx=0;entryDy=0;entryPerimeter=0;" edge="1" parent="1">
          <mxGeometry width="50" height="50" relative="1" as="geometry">
            <mxPoint x="-748.73" y="-936" as="sourcePoint" />
            <mxPoint x="-748.86" y="-803.31" as="targetPoint" />
          </mxGeometry>
        </mxCell>
        <mxCell id="xkR9pmXFTFTJfKK7whv9-93" value="Закон о&lt;div&gt;&amp;nbsp;неразглашении&lt;div&gt;&amp;nbsp;информации&lt;/div&gt;&lt;/div&gt;" style="edgeLabel;html=1;align=center;verticalAlign=middle;resizable=0;points=[];fontSize=11;" vertex="1" connectable="0" parent="xkR9pmXFTFTJfKK7whv9-92">
          <mxGeometry x="-0.0146" y="-2" relative="1" as="geometry">
            <mxPoint x="4" y="-27" as="offset" />
          </mxGeometry>
        </mxCell>
        <mxCell id="xkR9pmXFTFTJfKK7whv9-94" value="" style="endArrow=classic;html=1;rounded=0;entryX=0.951;entryY=0.023;entryDx=0;entryDy=0;entryPerimeter=0;" edge="1" parent="1">
          <mxGeometry width="50" height="50" relative="1" as="geometry">
            <mxPoint x="-704.36" y="-940" as="sourcePoint" />
            <mxPoint x="-703.36" y="-803.31" as="targetPoint" />
          </mxGeometry>
        </mxCell>
        <mxCell id="xkR9pmXFTFTJfKK7whv9-95" value="График&lt;div&gt;&amp;nbsp;работы&lt;/div&gt;&lt;div&gt;&amp;nbsp;врача&lt;/div&gt;" style="edgeLabel;html=1;align=center;verticalAlign=middle;resizable=0;points=[];fontSize=11;" vertex="1" connectable="0" parent="xkR9pmXFTFTJfKK7whv9-94">
          <mxGeometry x="-0.0146" y="-2" relative="1" as="geometry">
            <mxPoint x="11" y="30" as="offset" />
          </mxGeometry>
        </mxCell>
        <mxCell id="xkR9pmXFTFTJfKK7whv9-96" value="" style="endArrow=classic;html=1;rounded=0;entryX=0.951;entryY=0.023;entryDx=0;entryDy=0;entryPerimeter=0;" edge="1" parent="1">
          <mxGeometry width="50" height="50" relative="1" as="geometry">
            <mxPoint x="-668.86" y="-940" as="sourcePoint" />
            <mxPoint x="-667.86" y="-803.31" as="targetPoint" />
          </mxGeometry>
        </mxCell>
        <mxCell id="xkR9pmXFTFTJfKK7whv9-97" value="Мед.тайна" style="edgeLabel;html=1;align=center;verticalAlign=middle;resizable=0;points=[];fontSize=11;" vertex="1" connectable="0" parent="xkR9pmXFTFTJfKK7whv9-96">
          <mxGeometry x="-0.0146" y="-2" relative="1" as="geometry">
            <mxPoint x="11" y="-10" as="offset" />
          </mxGeometry>
        </mxCell>
        <mxCell id="xkR9pmXFTFTJfKK7whv9-98" value="" style="endArrow=classic;html=1;rounded=0;entryX=0.951;entryY=0.023;entryDx=0;entryDy=0;entryPerimeter=0;" edge="1" parent="1">
          <mxGeometry width="50" height="50" relative="1" as="geometry">
            <mxPoint x="-628.86" y="-940" as="sourcePoint" />
            <mxPoint x="-627.86" y="-803.31" as="targetPoint" />
          </mxGeometry>
        </mxCell>
        <mxCell id="xkR9pmXFTFTJfKK7whv9-99" value="Мед.карта" style="edgeLabel;html=1;align=center;verticalAlign=middle;resizable=0;points=[];fontSize=11;" vertex="1" connectable="0" parent="xkR9pmXFTFTJfKK7whv9-98">
          <mxGeometry x="-0.0146" y="-2" relative="1" as="geometry">
            <mxPoint x="11" y="16" as="offset" />
          </mxGeometry>
        </mxCell>
        <mxCell id="xkR9pmXFTFTJfKK7whv9-100" value="А3" style="text;html=1;align=center;verticalAlign=middle;whiteSpace=wrap;rounded=0;" vertex="1" parent="1">
          <mxGeometry x="-658.86" y="-703.31" width="60" height="30" as="geometry" />
        </mxCell>
        <mxCell id="xkR9pmXFTFTJfKK7whv9-101" value="" style="endArrow=classic;html=1;rounded=0;entryX=-0.002;entryY=0.31;entryDx=0;entryDy=0;entryPerimeter=0;" edge="1" parent="1">
          <mxGeometry width="50" height="50" relative="1" as="geometry">
            <mxPoint x="-608.86" y="-740" as="sourcePoint" />
            <mxPoint x="-469" y="-739.69" as="targetPoint" />
          </mxGeometry>
        </mxCell>
        <mxCell id="xkR9pmXFTFTJfKK7whv9-102" value="Результат приема" style="edgeLabel;html=1;align=center;verticalAlign=middle;resizable=0;points=[];" vertex="1" connectable="0" parent="xkR9pmXFTFTJfKK7whv9-101">
          <mxGeometry x="-0.0775" y="-2" relative="1" as="geometry">
            <mxPoint y="8" as="offset" />
          </mxGeometry>
        </mxCell>
        <mxCell id="xkR9pmXFTFTJfKK7whv9-103" value="Регистрация на сайте" style="rounded=1;whiteSpace=wrap;html=1;fontSize=15;" vertex="1" parent="1">
          <mxGeometry x="-1470" y="-324" width="190" height="90" as="geometry" />
        </mxCell>
        <mxCell id="xkR9pmXFTFTJfKK7whv9-104" value="А1.1" style="text;html=1;align=center;verticalAlign=middle;whiteSpace=wrap;rounded=0;" vertex="1" parent="1">
          <mxGeometry x="-1340.0000000000002" y="-263.99999999999994" width="60" height="30" as="geometry" />
        </mxCell>
        <mxCell id="xkR9pmXFTFTJfKK7whv9-105" value="" style="endArrow=classic;html=1;rounded=0;entryX=0.25;entryY=1;entryDx=0;entryDy=0;" edge="1" parent="1">
          <mxGeometry width="50" height="50" relative="1" as="geometry">
            <mxPoint x="-1431" y="-144" as="sourcePoint" />
            <mxPoint x="-1431.1400000000003" y="-233.99999999999994" as="targetPoint" />
          </mxGeometry>
        </mxCell>
        <mxCell id="xkR9pmXFTFTJfKK7whv9-106" value="Клиент" style="edgeLabel;html=1;align=center;verticalAlign=middle;resizable=0;points=[];" vertex="1" connectable="0" parent="xkR9pmXFTFTJfKK7whv9-105">
          <mxGeometry x="-0.0775" y="-2" relative="1" as="geometry">
            <mxPoint y="25" as="offset" />
          </mxGeometry>
        </mxCell>
        <mxCell id="xkR9pmXFTFTJfKK7whv9-109" value="" style="endArrow=classic;html=1;rounded=0;entryX=0.25;entryY=1;entryDx=0;entryDy=0;" edge="1" parent="1">
          <mxGeometry width="50" height="50" relative="1" as="geometry">
            <mxPoint x="-1390" y="-144" as="sourcePoint" />
            <mxPoint x="-1390.0000000000002" y="-233.99999999999994" as="targetPoint" />
          </mxGeometry>
        </mxCell>
        <mxCell id="xkR9pmXFTFTJfKK7whv9-110" value="Компьютер" style="edgeLabel;html=1;align=center;verticalAlign=middle;resizable=0;points=[];" vertex="1" connectable="0" parent="xkR9pmXFTFTJfKK7whv9-109">
          <mxGeometry x="-0.0775" y="-2" relative="1" as="geometry">
            <mxPoint y="8" as="offset" />
          </mxGeometry>
        </mxCell>
        <mxCell id="xkR9pmXFTFTJfKK7whv9-111" value="" style="endArrow=classic;html=1;rounded=0;entryX=0.904;entryY=1.015;entryDx=0;entryDy=0;entryPerimeter=0;" edge="1" parent="1">
          <mxGeometry width="50" height="50" relative="1" as="geometry">
            <mxPoint x="-1348" y="-144" as="sourcePoint" />
            <mxPoint x="-1348.2400000000005" y="-234.00000000000017" as="targetPoint" />
          </mxGeometry>
        </mxCell>
        <mxCell id="xkR9pmXFTFTJfKK7whv9-112" value="Интернет" style="edgeLabel;html=1;align=center;verticalAlign=middle;resizable=0;points=[];" vertex="1" connectable="0" parent="xkR9pmXFTFTJfKK7whv9-111">
          <mxGeometry x="-0.0775" y="-2" relative="1" as="geometry">
            <mxPoint y="-19" as="offset" />
          </mxGeometry>
        </mxCell>
        <mxCell id="xkR9pmXFTFTJfKK7whv9-113" value="" style="endArrow=classic;html=1;rounded=0;entryX=0.905;entryY=1.01;entryDx=0;entryDy=0;entryPerimeter=0;" edge="1" parent="1">
          <mxGeometry width="50" height="50" relative="1" as="geometry">
            <mxPoint x="-1309" y="-144" as="sourcePoint" />
            <mxPoint x="-1309.07" y="-234" as="targetPoint" />
          </mxGeometry>
        </mxCell>
        <mxCell id="xkR9pmXFTFTJfKK7whv9-114" value="Сайт" style="edgeLabel;html=1;align=center;verticalAlign=middle;resizable=0;points=[];" vertex="1" connectable="0" parent="xkR9pmXFTFTJfKK7whv9-113">
          <mxGeometry x="-0.0775" y="-2" relative="1" as="geometry">
            <mxPoint y="5" as="offset" />
          </mxGeometry>
        </mxCell>
        <mxCell id="xkR9pmXFTFTJfKK7whv9-115" value="" style="endArrow=classic;html=1;rounded=0;entryX=0.006;entryY=0.706;entryDx=0;entryDy=0;entryPerimeter=0;" edge="1" parent="1">
          <mxGeometry width="50" height="50" relative="1" as="geometry">
            <mxPoint x="-1560" y="-311" as="sourcePoint" />
            <mxPoint x="-1470.0000000000002" y="-310.99999999999994" as="targetPoint" />
          </mxGeometry>
        </mxCell>
        <mxCell id="xkR9pmXFTFTJfKK7whv9-116" value="ФИО" style="edgeLabel;html=1;align=center;verticalAlign=middle;resizable=0;points=[];" vertex="1" connectable="0" parent="xkR9pmXFTFTJfKK7whv9-115">
          <mxGeometry x="-0.0775" y="-2" relative="1" as="geometry">
            <mxPoint y="6" as="offset" />
          </mxGeometry>
        </mxCell>
        <mxCell id="xkR9pmXFTFTJfKK7whv9-117" value="" style="endArrow=classic;html=1;rounded=0;entryX=0.006;entryY=0.706;entryDx=0;entryDy=0;entryPerimeter=0;" edge="1" parent="1">
          <mxGeometry width="50" height="50" relative="1" as="geometry">
            <mxPoint x="-1560" y="-281" as="sourcePoint" />
            <mxPoint x="-1470.0000000000002" y="-280.99999999999994" as="targetPoint" />
          </mxGeometry>
        </mxCell>
        <mxCell id="xkR9pmXFTFTJfKK7whv9-118" value="Телефон" style="edgeLabel;html=1;align=center;verticalAlign=middle;resizable=0;points=[];" vertex="1" connectable="0" parent="xkR9pmXFTFTJfKK7whv9-117">
          <mxGeometry x="-0.0775" y="-2" relative="1" as="geometry">
            <mxPoint y="6" as="offset" />
          </mxGeometry>
        </mxCell>
        <mxCell id="xkR9pmXFTFTJfKK7whv9-119" value="" style="endArrow=classic;html=1;rounded=0;entryX=0.006;entryY=0.706;entryDx=0;entryDy=0;entryPerimeter=0;" edge="1" parent="1">
          <mxGeometry width="50" height="50" relative="1" as="geometry">
            <mxPoint x="-1560" y="-252" as="sourcePoint" />
            <mxPoint x="-1470.0000000000002" y="-251.99999999999994" as="targetPoint" />
          </mxGeometry>
        </mxCell>
        <mxCell id="xkR9pmXFTFTJfKK7whv9-120" value="E-mail" style="edgeLabel;html=1;align=center;verticalAlign=middle;resizable=0;points=[];" vertex="1" connectable="0" parent="xkR9pmXFTFTJfKK7whv9-119">
          <mxGeometry x="-0.0775" y="-2" relative="1" as="geometry">
            <mxPoint y="6" as="offset" />
          </mxGeometry>
        </mxCell>
        <mxCell id="xkR9pmXFTFTJfKK7whv9-121" value="" style="endArrow=classic;html=1;rounded=0;entryX=0.362;entryY=0.02;entryDx=0;entryDy=0;entryPerimeter=0;" edge="1" parent="1">
          <mxGeometry width="50" height="50" relative="1" as="geometry">
            <mxPoint x="-1439" y="-414" as="sourcePoint" />
            <mxPoint x="-1440.0000000000002" y="-321.40000000000015" as="targetPoint" />
          </mxGeometry>
        </mxCell>
        <mxCell id="xkR9pmXFTFTJfKK7whv9-122" value="Закон о защите&lt;div&gt;&amp;nbsp;персональных&lt;/div&gt;&lt;div&gt;&amp;nbsp;данных&lt;/div&gt;" style="edgeLabel;html=1;align=center;verticalAlign=middle;resizable=0;points=[];fontSize=11;" vertex="1" connectable="0" parent="xkR9pmXFTFTJfKK7whv9-121">
          <mxGeometry x="-0.0146" y="-2" relative="1" as="geometry">
            <mxPoint x="1" y="2" as="offset" />
          </mxGeometry>
        </mxCell>
        <mxCell id="xkR9pmXFTFTJfKK7whv9-123" value="" style="endArrow=classic;html=1;rounded=0;" edge="1" parent="1">
          <mxGeometry width="50" height="50" relative="1" as="geometry">
            <mxPoint x="-1350" y="-414" as="sourcePoint" />
            <mxPoint x="-1350.0000000000002" y="-323.99999999999994" as="targetPoint" />
            <Array as="points">
              <mxPoint x="-1350.0000000000002" y="-357.98999999999995" />
            </Array>
          </mxGeometry>
        </mxCell>
        <mxCell id="xkR9pmXFTFTJfKK7whv9-124" value="Форма&lt;div&gt;регистрации&lt;/div&gt;" style="edgeLabel;html=1;align=center;verticalAlign=middle;resizable=0;points=[];" vertex="1" connectable="0" parent="xkR9pmXFTFTJfKK7whv9-123">
          <mxGeometry x="-0.0146" y="-2" relative="1" as="geometry">
            <mxPoint as="offset" />
          </mxGeometry>
        </mxCell>
        <mxCell id="xkR9pmXFTFTJfKK7whv9-125" value="" style="endArrow=classic;html=1;rounded=0;" edge="1" parent="1">
          <mxGeometry width="50" height="50" relative="1" as="geometry">
            <mxPoint x="-1287.8600000000001" y="-937.3" as="sourcePoint" />
            <mxPoint x="-1287.8600000000001" y="-803.31" as="targetPoint" />
            <Array as="points">
              <mxPoint x="-1287.8600000000001" y="-837.3" />
            </Array>
          </mxGeometry>
        </mxCell>
        <mxCell id="xkR9pmXFTFTJfKK7whv9-126" value="Форма&lt;div&gt;регистрации&lt;/div&gt;" style="edgeLabel;html=1;align=center;verticalAlign=middle;resizable=0;points=[];" vertex="1" connectable="0" parent="xkR9pmXFTFTJfKK7whv9-125">
          <mxGeometry x="-0.0146" y="-2" relative="1" as="geometry">
            <mxPoint y="-11" as="offset" />
          </mxGeometry>
        </mxCell>
        <mxCell id="xkR9pmXFTFTJfKK7whv9-128" value="" style="endArrow=classic;html=1;rounded=0;entryX=0.006;entryY=0.706;entryDx=0;entryDy=0;entryPerimeter=0;" edge="1" parent="1">
          <mxGeometry width="50" height="50" relative="1" as="geometry">
            <mxPoint x="-1280" y="-279.23" as="sourcePoint" />
            <mxPoint x="-1190.0000000000002" y="-279.22999999999996" as="targetPoint" />
          </mxGeometry>
        </mxCell>
        <mxCell id="xkR9pmXFTFTJfKK7whv9-129" value="Данные&amp;nbsp;&lt;div&gt;клиента&lt;/div&gt;" style="edgeLabel;html=1;align=center;verticalAlign=middle;resizable=0;points=[];" vertex="1" connectable="0" parent="xkR9pmXFTFTJfKK7whv9-128">
          <mxGeometry x="-0.0775" y="-2" relative="1" as="geometry">
            <mxPoint y="15" as="offset" />
          </mxGeometry>
        </mxCell>
        <mxCell id="xkR9pmXFTFTJfKK7whv9-130" value="Создание мед.карты" style="rounded=1;whiteSpace=wrap;html=1;fontSize=15;" vertex="1" parent="1">
          <mxGeometry x="-1188.8600000000001" y="-324" width="190" height="90" as="geometry" />
        </mxCell>
        <mxCell id="xkR9pmXFTFTJfKK7whv9-131" value="" style="endArrow=classic;html=1;rounded=0;" edge="1" parent="1">
          <mxGeometry width="50" height="50" relative="1" as="geometry">
            <mxPoint x="-1150" y="-414" as="sourcePoint" />
            <mxPoint x="-1150.0000000000002" y="-323.99999999999994" as="targetPoint" />
            <Array as="points">
              <mxPoint x="-1150.0000000000002" y="-357.98999999999995" />
            </Array>
          </mxGeometry>
        </mxCell>
        <mxCell id="xkR9pmXFTFTJfKK7whv9-132" value="Форма&lt;div&gt;мед.карты&lt;/div&gt;" style="edgeLabel;html=1;align=center;verticalAlign=middle;resizable=0;points=[];" vertex="1" connectable="0" parent="xkR9pmXFTFTJfKK7whv9-131">
          <mxGeometry x="-0.0146" y="-2" relative="1" as="geometry">
            <mxPoint as="offset" />
          </mxGeometry>
        </mxCell>
        <mxCell id="xkR9pmXFTFTJfKK7whv9-133" value="" style="endArrow=classic;html=1;rounded=0;entryX=0.362;entryY=0.02;entryDx=0;entryDy=0;entryPerimeter=0;" edge="1" parent="1">
          <mxGeometry width="50" height="50" relative="1" as="geometry">
            <mxPoint x="-1069" y="-416.6" as="sourcePoint" />
            <mxPoint x="-1070.0000000000002" y="-324.00000000000017" as="targetPoint" />
          </mxGeometry>
        </mxCell>
        <mxCell id="xkR9pmXFTFTJfKK7whv9-134" value="Закон о защите&lt;div&gt;&amp;nbsp;персональных&lt;/div&gt;&lt;div&gt;&amp;nbsp;данных&lt;/div&gt;" style="edgeLabel;html=1;align=center;verticalAlign=middle;resizable=0;points=[];fontSize=11;" vertex="1" connectable="0" parent="xkR9pmXFTFTJfKK7whv9-133">
          <mxGeometry x="-0.0146" y="-2" relative="1" as="geometry">
            <mxPoint x="1" y="2" as="offset" />
          </mxGeometry>
        </mxCell>
        <mxCell id="xkR9pmXFTFTJfKK7whv9-135" value="" style="endArrow=classic;html=1;rounded=0;entryX=0.25;entryY=1;entryDx=0;entryDy=0;" edge="1" parent="1">
          <mxGeometry width="50" height="50" relative="1" as="geometry">
            <mxPoint x="-1140" y="-144" as="sourcePoint" />
            <mxPoint x="-1140.0000000000002" y="-233.99999999999994" as="targetPoint" />
          </mxGeometry>
        </mxCell>
        <mxCell id="xkR9pmXFTFTJfKK7whv9-136" value="Компьютер" style="edgeLabel;html=1;align=center;verticalAlign=middle;resizable=0;points=[];" vertex="1" connectable="0" parent="xkR9pmXFTFTJfKK7whv9-135">
          <mxGeometry x="-0.0775" y="-2" relative="1" as="geometry">
            <mxPoint y="8" as="offset" />
          </mxGeometry>
        </mxCell>
        <mxCell id="xkR9pmXFTFTJfKK7whv9-137" value="" style="endArrow=classic;html=1;rounded=0;entryX=0.25;entryY=1;entryDx=0;entryDy=0;" edge="1" parent="1">
          <mxGeometry width="50" height="50" relative="1" as="geometry">
            <mxPoint x="-1070" y="-144" as="sourcePoint" />
            <mxPoint x="-1070.0000000000002" y="-233.99999999999994" as="targetPoint" />
          </mxGeometry>
        </mxCell>
        <mxCell id="xkR9pmXFTFTJfKK7whv9-138" value="CRM" style="edgeLabel;html=1;align=center;verticalAlign=middle;resizable=0;points=[];" vertex="1" connectable="0" parent="xkR9pmXFTFTJfKK7whv9-137">
          <mxGeometry x="-0.0775" y="-2" relative="1" as="geometry">
            <mxPoint y="8" as="offset" />
          </mxGeometry>
        </mxCell>
        <mxCell id="xkR9pmXFTFTJfKK7whv9-139" value="А1.2" style="text;html=1;align=center;verticalAlign=middle;whiteSpace=wrap;rounded=0;" vertex="1" parent="1">
          <mxGeometry x="-1050.0000000000002" y="-263.99999999999994" width="60" height="30" as="geometry" />
        </mxCell>
        <mxCell id="xkR9pmXFTFTJfKK7whv9-142" value="A1" style="text;html=1;align=center;verticalAlign=middle;whiteSpace=wrap;rounded=0;fontSize=24;" vertex="1" parent="1">
          <mxGeometry x="-1580" y="-440" width="80" height="50" as="geometry" />
        </mxCell>
        <mxCell id="xkR9pmXFTFTJfKK7whv9-143" value="Подтверждение заявки клиентом" style="rounded=1;whiteSpace=wrap;html=1;fontSize=15;" vertex="1" parent="1">
          <mxGeometry x="-670" y="-340" width="190" height="90" as="geometry" />
        </mxCell>
        <mxCell id="xkR9pmXFTFTJfKK7whv9-146" value="" style="endArrow=classic;html=1;rounded=0;entryX=0.006;entryY=0.706;entryDx=0;entryDy=0;entryPerimeter=0;" edge="1" parent="1">
          <mxGeometry width="50" height="50" relative="1" as="geometry">
            <mxPoint x="-760" y="-295.53" as="sourcePoint" />
            <mxPoint x="-670.0000000000002" y="-295.5299999999999" as="targetPoint" />
          </mxGeometry>
        </mxCell>
        <mxCell id="xkR9pmXFTFTJfKK7whv9-147" value="Подтверждение&lt;div&gt;&amp;nbsp;от клиента&lt;/div&gt;" style="edgeLabel;html=1;align=center;verticalAlign=middle;resizable=0;points=[];" vertex="1" connectable="0" parent="xkR9pmXFTFTJfKK7whv9-146">
          <mxGeometry x="-0.0775" y="-2" relative="1" as="geometry">
            <mxPoint x="-3" y="16" as="offset" />
          </mxGeometry>
        </mxCell>
        <mxCell id="xkR9pmXFTFTJfKK7whv9-149" value="" style="endArrow=classic;html=1;rounded=0;entryX=0.688;entryY=1.013;entryDx=0;entryDy=0;entryPerimeter=0;" edge="1" parent="1">
          <mxGeometry width="50" height="50" relative="1" as="geometry">
            <mxPoint x="-602" y="-160" as="sourcePoint" />
            <mxPoint x="-601.6700000000003" y="-250.00000000000017" as="targetPoint" />
          </mxGeometry>
        </mxCell>
        <mxCell id="xkR9pmXFTFTJfKK7whv9-150" value="Стационарный&lt;div&gt;&amp;nbsp;телефон&lt;/div&gt;" style="edgeLabel;html=1;align=center;verticalAlign=middle;resizable=0;points=[];rotation=0;" vertex="1" connectable="0" parent="xkR9pmXFTFTJfKK7whv9-149">
          <mxGeometry x="-0.0775" y="-2" relative="1" as="geometry">
            <mxPoint x="-2" y="3" as="offset" />
          </mxGeometry>
        </mxCell>
        <mxCell id="xkR9pmXFTFTJfKK7whv9-151" value="" style="endArrow=classic;html=1;rounded=0;entryX=0.894;entryY=1.006;entryDx=0;entryDy=0;entryPerimeter=0;" edge="1" parent="1">
          <mxGeometry width="50" height="50" relative="1" as="geometry">
            <mxPoint x="-549" y="-160" as="sourcePoint" />
            <mxPoint x="-548.5699999999999" y="-250" as="targetPoint" />
          </mxGeometry>
        </mxCell>
        <mxCell id="xkR9pmXFTFTJfKK7whv9-152" value="Компьютер" style="edgeLabel;html=1;align=center;verticalAlign=middle;resizable=0;points=[];" vertex="1" connectable="0" parent="xkR9pmXFTFTJfKK7whv9-151">
          <mxGeometry x="0.6109" y="-1" relative="1" as="geometry">
            <mxPoint x="4" y="12" as="offset" />
          </mxGeometry>
        </mxCell>
        <mxCell id="xkR9pmXFTFTJfKK7whv9-153" value="" style="endArrow=classic;html=1;rounded=0;entryX=0.905;entryY=1.01;entryDx=0;entryDy=0;entryPerimeter=0;" edge="1" parent="1">
          <mxGeometry width="50" height="50" relative="1" as="geometry">
            <mxPoint x="-492.92999999999995" y="-160" as="sourcePoint" />
            <mxPoint x="-492.9999999999999" y="-250" as="targetPoint" />
          </mxGeometry>
        </mxCell>
        <mxCell id="xkR9pmXFTFTJfKK7whv9-154" value="Сайт" style="edgeLabel;html=1;align=center;verticalAlign=middle;resizable=0;points=[];" vertex="1" connectable="0" parent="xkR9pmXFTFTJfKK7whv9-153">
          <mxGeometry x="-0.0775" y="-2" relative="1" as="geometry">
            <mxPoint x="-2" y="-25" as="offset" />
          </mxGeometry>
        </mxCell>
        <mxCell id="xkR9pmXFTFTJfKK7whv9-155" value="" style="endArrow=classic;html=1;rounded=0;entryX=0.25;entryY=1;entryDx=0;entryDy=0;" edge="1" parent="1">
          <mxGeometry width="50" height="50" relative="1" as="geometry">
            <mxPoint x="-650" y="-160" as="sourcePoint" />
            <mxPoint x="-650.0000000000001" y="-249.99999999999994" as="targetPoint" />
          </mxGeometry>
        </mxCell>
        <mxCell id="xkR9pmXFTFTJfKK7whv9-156" value="Администратор" style="edgeLabel;html=1;align=center;verticalAlign=middle;resizable=0;points=[];" vertex="1" connectable="0" parent="xkR9pmXFTFTJfKK7whv9-155">
          <mxGeometry x="0.4324" relative="1" as="geometry">
            <mxPoint x="-20" y="51" as="offset" />
          </mxGeometry>
        </mxCell>
        <mxCell id="xkR9pmXFTFTJfKK7whv9-157" value="" style="endArrow=classic;html=1;rounded=0;entryX=0.446;entryY=0.007;entryDx=0;entryDy=0;entryPerimeter=0;" edge="1" parent="1">
          <mxGeometry width="50" height="50" relative="1" as="geometry">
            <mxPoint x="-620" y="-430" as="sourcePoint" />
            <mxPoint x="-620" y="-340" as="targetPoint" />
          </mxGeometry>
        </mxCell>
        <mxCell id="xkR9pmXFTFTJfKK7whv9-158" value="Закон о&lt;div&gt;&amp;nbsp;неразглашении&lt;div&gt;&amp;nbsp;информации&lt;/div&gt;&lt;/div&gt;" style="edgeLabel;html=1;align=center;verticalAlign=middle;resizable=0;points=[];fontSize=11;" vertex="1" connectable="0" parent="xkR9pmXFTFTJfKK7whv9-157">
          <mxGeometry x="-0.0146" y="-2" relative="1" as="geometry">
            <mxPoint x="3" y="-3" as="offset" />
          </mxGeometry>
        </mxCell>
        <mxCell id="xkR9pmXFTFTJfKK7whv9-159" value="" style="endArrow=classic;html=1;rounded=0;entryX=0.362;entryY=0.02;entryDx=0;entryDy=0;entryPerimeter=0;" edge="1" parent="1">
          <mxGeometry width="50" height="50" relative="1" as="geometry">
            <mxPoint x="-519" y="-432.6" as="sourcePoint" />
            <mxPoint x="-520.0000000000002" y="-340.00000000000017" as="targetPoint" />
          </mxGeometry>
        </mxCell>
        <mxCell id="xkR9pmXFTFTJfKK7whv9-160" value="Закон о защите&lt;div&gt;&amp;nbsp;персональных&lt;/div&gt;&lt;div&gt;&amp;nbsp;данных&lt;/div&gt;" style="edgeLabel;html=1;align=center;verticalAlign=middle;resizable=0;points=[];fontSize=11;" vertex="1" connectable="0" parent="xkR9pmXFTFTJfKK7whv9-159">
          <mxGeometry x="-0.0146" y="-2" relative="1" as="geometry">
            <mxPoint x="1" y="-2" as="offset" />
          </mxGeometry>
        </mxCell>
        <mxCell id="xkR9pmXFTFTJfKK7whv9-161" value="А2.1" style="text;html=1;align=center;verticalAlign=middle;whiteSpace=wrap;rounded=0;" vertex="1" parent="1">
          <mxGeometry x="-530.0000000000002" y="-279.99999999999994" width="60" height="30" as="geometry" />
        </mxCell>
        <mxCell id="xkR9pmXFTFTJfKK7whv9-162" value="" style="endArrow=classic;html=1;rounded=0;" edge="1" parent="1">
          <mxGeometry width="50" height="50" relative="1" as="geometry">
            <mxPoint x="-480" y="-295.29999999999995" as="sourcePoint" />
            <mxPoint x="-370" y="-295" as="targetPoint" />
          </mxGeometry>
        </mxCell>
        <mxCell id="xkR9pmXFTFTJfKK7whv9-163" value="Подтвержденная&lt;div&gt;заявка&lt;/div&gt;" style="edgeLabel;html=1;align=center;verticalAlign=middle;resizable=0;points=[];" vertex="1" connectable="0" parent="xkR9pmXFTFTJfKK7whv9-162">
          <mxGeometry x="-0.0775" y="-2" relative="1" as="geometry">
            <mxPoint x="-3" y="16" as="offset" />
          </mxGeometry>
        </mxCell>
        <mxCell id="xkR9pmXFTFTJfKK7whv9-164" value="Отправка СМС-уведомления" style="rounded=1;whiteSpace=wrap;html=1;fontSize=15;" vertex="1" parent="1">
          <mxGeometry x="-370" y="-340" width="190" height="90" as="geometry" />
        </mxCell>
        <mxCell id="xkR9pmXFTFTJfKK7whv9-165" value="" style="endArrow=classic;html=1;rounded=0;entryX=0.894;entryY=1.006;entryDx=0;entryDy=0;entryPerimeter=0;" edge="1" parent="1">
          <mxGeometry width="50" height="50" relative="1" as="geometry">
            <mxPoint x="-340" y="-160" as="sourcePoint" />
            <mxPoint x="-339.56999999999994" y="-250" as="targetPoint" />
          </mxGeometry>
        </mxCell>
        <mxCell id="xkR9pmXFTFTJfKK7whv9-166" value="Компьютер" style="edgeLabel;html=1;align=center;verticalAlign=middle;resizable=0;points=[];" vertex="1" connectable="0" parent="xkR9pmXFTFTJfKK7whv9-165">
          <mxGeometry x="0.6109" y="-1" relative="1" as="geometry">
            <mxPoint x="-1" y="54" as="offset" />
          </mxGeometry>
        </mxCell>
        <mxCell id="xkR9pmXFTFTJfKK7whv9-167" value="" style="endArrow=classic;html=1;rounded=0;entryX=0.894;entryY=1.006;entryDx=0;entryDy=0;entryPerimeter=0;" edge="1" parent="1">
          <mxGeometry width="50" height="50" relative="1" as="geometry">
            <mxPoint x="-300" y="-160" as="sourcePoint" />
            <mxPoint x="-299.56999999999994" y="-250" as="targetPoint" />
          </mxGeometry>
        </mxCell>
        <mxCell id="xkR9pmXFTFTJfKK7whv9-168" value="Интернет" style="edgeLabel;html=1;align=center;verticalAlign=middle;resizable=0;points=[];" vertex="1" connectable="0" parent="xkR9pmXFTFTJfKK7whv9-167">
          <mxGeometry x="0.6109" y="-1" relative="1" as="geometry">
            <mxPoint x="-3" y="35" as="offset" />
          </mxGeometry>
        </mxCell>
        <mxCell id="xkR9pmXFTFTJfKK7whv9-169" value="" style="endArrow=classic;html=1;rounded=0;entryX=0.894;entryY=1.006;entryDx=0;entryDy=0;entryPerimeter=0;" edge="1" parent="1">
          <mxGeometry width="50" height="50" relative="1" as="geometry">
            <mxPoint x="-270" y="-160" as="sourcePoint" />
            <mxPoint x="-269.56999999999994" y="-250" as="targetPoint" />
          </mxGeometry>
        </mxCell>
        <mxCell id="xkR9pmXFTFTJfKK7whv9-170" value="CRM" style="edgeLabel;html=1;align=center;verticalAlign=middle;resizable=0;points=[];" vertex="1" connectable="0" parent="xkR9pmXFTFTJfKK7whv9-169">
          <mxGeometry x="0.6109" y="-1" relative="1" as="geometry">
            <mxPoint x="-1" y="18" as="offset" />
          </mxGeometry>
        </mxCell>
        <mxCell id="xkR9pmXFTFTJfKK7whv9-171" value="" style="endArrow=classic;html=1;rounded=0;entryX=0.894;entryY=1.006;entryDx=0;entryDy=0;entryPerimeter=0;" edge="1" parent="1">
          <mxGeometry width="50" height="50" relative="1" as="geometry">
            <mxPoint x="-230" y="-160" as="sourcePoint" />
            <mxPoint x="-229.56999999999994" y="-250" as="targetPoint" />
          </mxGeometry>
        </mxCell>
        <mxCell id="xkR9pmXFTFTJfKK7whv9-172" value="Оператор&lt;div&gt;сотовой связи&lt;/div&gt;" style="edgeLabel;html=1;align=center;verticalAlign=middle;resizable=0;points=[];" vertex="1" connectable="0" parent="xkR9pmXFTFTJfKK7whv9-171">
          <mxGeometry x="0.6109" y="-1" relative="1" as="geometry">
            <mxPoint x="-1" y="45" as="offset" />
          </mxGeometry>
        </mxCell>
        <mxCell id="xkR9pmXFTFTJfKK7whv9-173" value="" style="endArrow=classic;html=1;rounded=0;entryX=0.362;entryY=0.02;entryDx=0;entryDy=0;entryPerimeter=0;" edge="1" parent="1">
          <mxGeometry width="50" height="50" relative="1" as="geometry">
            <mxPoint x="-329" y="-432.6" as="sourcePoint" />
            <mxPoint x="-330.0000000000002" y="-340.00000000000017" as="targetPoint" />
          </mxGeometry>
        </mxCell>
        <mxCell id="xkR9pmXFTFTJfKK7whv9-174" value="Закон о защите&lt;div&gt;&amp;nbsp;персональных&lt;/div&gt;&lt;div&gt;&amp;nbsp;данных&lt;/div&gt;" style="edgeLabel;html=1;align=center;verticalAlign=middle;resizable=0;points=[];fontSize=11;" vertex="1" connectable="0" parent="xkR9pmXFTFTJfKK7whv9-173">
          <mxGeometry x="-0.0146" y="-2" relative="1" as="geometry">
            <mxPoint x="1" y="-2" as="offset" />
          </mxGeometry>
        </mxCell>
        <mxCell id="xkR9pmXFTFTJfKK7whv9-175" value="" style="endArrow=classic;html=1;rounded=0;entryX=0.362;entryY=0.02;entryDx=0;entryDy=0;entryPerimeter=0;" edge="1" parent="1">
          <mxGeometry width="50" height="50" relative="1" as="geometry">
            <mxPoint x="-239" y="-432.6" as="sourcePoint" />
            <mxPoint x="-240.00000000000023" y="-340.00000000000017" as="targetPoint" />
          </mxGeometry>
        </mxCell>
        <mxCell id="xkR9pmXFTFTJfKK7whv9-176" value="Регламент&lt;div&gt;шифрования&lt;/div&gt;&lt;div&gt;информации&lt;/div&gt;" style="edgeLabel;html=1;align=center;verticalAlign=middle;resizable=0;points=[];fontSize=11;" vertex="1" connectable="0" parent="xkR9pmXFTFTJfKK7whv9-175">
          <mxGeometry x="-0.0146" y="-2" relative="1" as="geometry">
            <mxPoint x="1" y="-2" as="offset" />
          </mxGeometry>
        </mxCell>
        <mxCell id="xkR9pmXFTFTJfKK7whv9-177" value="А2.2" style="text;html=1;align=center;verticalAlign=middle;whiteSpace=wrap;rounded=0;" vertex="1" parent="1">
          <mxGeometry x="-230.00000000000023" y="-279.99999999999994" width="60" height="30" as="geometry" />
        </mxCell>
        <mxCell id="xkR9pmXFTFTJfKK7whv9-182" value="A2" style="text;html=1;align=center;verticalAlign=middle;whiteSpace=wrap;rounded=0;fontSize=24;" vertex="1" parent="1">
          <mxGeometry x="-780" y="-440" width="80" height="50" as="geometry" />
        </mxCell>
      </root>
    </mxGraphModel>
  </diagram>
</mxfile>
